<svg width="1366" height="1384" viewBox="0 0 1366 1384" fill="none" xmlns="http://www.w3.org/2000/svg">
<g clip-path="url(#clip0_1502_476)">
<rect width="1366" height="1384" fill="#F8F8F8"/>
<path d="M-108.606 563.484C-130.564 262.024 -3.70673 288.232 106.138 253.757C212.932 253.757 527.029 84.5324 551.687 288.232C586.505 481.381 532.394 675.591 131.1 638.62C0.963298 642.393 -102.928 759.303 -108.606 563.484Z" fill="#FFD101"/>
<path d="M342.811 409.663C343.335 409.883 344.225 409.868 344.138 410.767C343.554 410.592 342.562 410.676 342.811 409.663Z" fill="black"/>
<path d="M331.952 410.85C332.456 410.395 332.904 411.442 332.456 411.806C331.949 412.258 331.5 411.215 331.952 410.85Z" fill="black"/>
<path d="M335.28 420.326C335.386 419.438 335.333 417.849 336.478 417.993C336.173 418.82 336.037 419.87 335.28 420.326Z" fill="black"/>
<path d="M334.557 422.905C334.722 422.068 335.042 421.281 335.496 420.598C335.616 421.082 335.685 421.58 335.702 422.081C335.456 422.559 334.962 422.685 334.557 422.905Z" fill="black"/>
<path d="M333.611 431.025C334.093 431.025 334.069 431.958 333.611 431.955C333.153 431.951 333.137 431.025 333.611 431.025Z" fill="black"/>
<path d="M1556.52 1293.85C1571.67 1640.23 1415.5 1612 1295.73 1648.5C1162 1667.5 811.784 1821.88 790.284 1587.5C756.784 1364.88 825.284 1144 1284.17 1199.73C1433.51 1199.73 1556.52 1069.14 1556.52 1293.85Z" fill="#FFD101"/>
</g>
<defs>
<clipPath id="clip0_1502_476">
<rect width="1366" height="1384" fill="white"/>
</clipPath>
</defs>
</svg>
