<svg width="30" height="28" viewBox="0 0 30 28" fill="none" xmlns="http://www.w3.org/2000/svg">
<path d="M11.6982 27.7076C12.6897 27.7076 13.4935 26.8681 13.4935 25.8325C13.4935 24.7969 12.6897 23.9574 11.6982 23.9574C10.7066 23.9574 9.90283 24.7969 9.90283 25.8325C9.90283 26.8681 10.7066 27.7076 11.6982 27.7076Z" fill="black"/>
<path d="M22.2702 27.7076C23.2617 27.7076 24.0655 26.8681 24.0655 25.8325C24.0655 24.7969 23.2617 23.9574 22.2702 23.9574C21.2787 23.9574 20.4749 24.7969 20.4749 25.8325C20.4749 26.8681 21.2787 27.7076 22.2702 27.7076Z" fill="black"/>
<path d="M5.39858 6.64985H28.4046L25.0191 19.0257C24.8983 19.4748 24.6396 19.8701 24.2828 20.1508C23.9261 20.4315 23.4909 20.582 23.0442 20.5793H10.759C10.3123 20.582 9.87712 20.4315 9.52033 20.1508C9.16354 19.8701 8.90488 19.4748 8.78408 19.0257L4.14185 2.0692C4.0805 1.84519 3.95092 1.64817 3.77274 1.50799C3.59456 1.36781 3.37748 1.29211 3.15441 1.29236H1" stroke="black" stroke-width="2" stroke-linecap="round" stroke-linejoin="round"/>
</svg>
