<svg width="44" height="44" viewBox="0 0 44 44" fill="none" xmlns="http://www.w3.org/2000/svg">
<path d="M1.87053 0C1.37444 0 0.898659 0.193155 0.547866 0.536971C0.197074 0.880788 0 1.3471 0 1.83333C0 2.31956 0.197074 2.78588 0.547866 3.1297C0.898659 3.47351 1.37444 3.66667 1.87053 3.66667H2.79083C3.197 3.66736 3.59191 3.7976 3.91587 4.03773C4.23984 4.27785 4.47525 4.61481 4.58654 4.99767L10.5199 25.3477C10.8554 26.4961 11.5634 27.5062 12.5367 28.2253C13.51 28.9444 14.6956 29.3333 15.9145 29.3333H33.0074C34.1291 29.3335 35.2252 29.0042 36.1541 28.3879C37.083 27.7715 37.8021 26.8965 38.2187 25.8757L43.733 12.3603C43.9597 11.8042 44.044 11.2021 43.9784 10.6067C43.9129 10.0113 43.6995 9.44063 43.357 8.94468C43.0145 8.44874 42.5533 8.04256 42.0136 7.76167C41.474 7.48078 40.8723 7.33371 40.2613 7.33333H9.15812L8.1817 3.98933C7.84697 2.84083 7.13988 1.83035 6.16729 1.11062C5.19471 0.390892 4.0095 0.00104268 2.79083 0H1.87053ZM16.8348 44C17.5717 44 18.3014 43.8577 18.9822 43.5813C19.6631 43.3049 20.2817 42.8998 20.8028 42.3891C21.3239 41.8784 21.7372 41.272 22.0192 40.6048C22.3012 39.9375 22.4464 39.2223 22.4464 38.5C22.4464 37.7777 22.3012 37.0625 22.0192 36.3952C21.7372 35.728 21.3239 35.1216 20.8028 34.6109C20.2817 34.1002 19.6631 33.6951 18.9822 33.4187C18.3014 33.1423 17.5717 33 16.8348 33C15.3465 33 13.9192 33.5795 12.8668 34.6109C11.8144 35.6424 11.2232 37.0413 11.2232 38.5C11.2232 39.9587 11.8144 41.3576 12.8668 42.3891C13.9192 43.4205 15.3465 44 16.8348 44ZM31.799 44C32.5359 44 33.2657 43.8577 33.9465 43.5813C34.6273 43.3049 35.2459 42.8998 35.767 42.3891C36.2881 41.8784 36.7015 41.272 36.9835 40.6048C37.2655 39.9375 37.4106 39.2223 37.4106 38.5C37.4106 37.7777 37.2655 37.0625 36.9835 36.3952C36.7015 35.728 36.2881 35.1216 35.767 34.6109C35.2459 34.1002 34.6273 33.6951 33.9465 33.4187C33.2657 33.1423 32.5359 33 31.799 33C30.3107 33 28.8834 33.5795 27.831 34.6109C26.7786 35.6424 26.1874 37.0413 26.1874 38.5C26.1874 39.9587 26.7786 41.3576 27.831 42.3891C28.8834 43.4205 30.3107 44 31.799 44Z" fill="black"/>
</svg>
