<svg width="25" height="29" viewBox="0 0 25 29" fill="none" xmlns="http://www.w3.org/2000/svg">
<path d="M12.7694 14.5C14.1805 14.5 15.5599 14.0748 16.7331 13.2781C17.9064 12.4815 18.8209 11.3492 19.3609 10.0244C19.9009 8.69968 20.0422 7.24195 19.7669 5.83559C19.4916 4.42923 18.8121 3.13741 17.8143 2.12348C16.8165 1.10955 15.5453 0.419052 14.1613 0.13931C12.7773 -0.140433 11.3428 0.0031413 10.0391 0.551876C8.73544 1.10061 7.62117 2.02986 6.83722 3.22211C6.05326 4.41437 5.63483 5.81608 5.63483 7.24999C5.63483 9.17281 6.3865 11.0169 7.72449 12.3765C9.06248 13.7361 10.8772 14.5 12.7694 14.5ZM12.7694 2.07143C13.7773 2.07143 14.7626 2.37515 15.6006 2.94417C16.4387 3.5132 17.0919 4.32198 17.4776 5.26824C17.8633 6.2145 17.9642 7.25574 17.7676 8.26028C17.571 9.26482 17.0856 10.1876 16.3729 10.9118C15.6602 11.636 14.7522 12.1292 13.7636 12.3291C12.775 12.5289 11.7504 12.4263 10.8192 12.0344C9.888 11.6424 9.0921 10.9787 8.53213 10.127C7.97216 9.27544 7.67327 8.27422 7.67327 7.24999C7.67327 5.87655 8.21019 4.55936 9.16589 3.5882C10.1216 2.61703 11.4178 2.07143 12.7694 2.07143Z" fill="black"/>
<path d="M13.7885 16.5714H11.7501C8.77664 16.5714 5.92496 17.7717 3.8224 19.9083C1.71984 22.0449 0.538635 24.9427 0.538635 27.9643C0.538635 28.2389 0.646018 28.5024 0.837159 28.6966C1.0283 28.8908 1.28754 29 1.55786 29H23.9808C24.2511 29 24.5104 28.8908 24.7015 28.6966C24.8926 28.5024 25 28.2389 25 27.9643C25 24.9427 23.8188 22.0449 21.7163 19.9083C19.6137 17.7717 16.762 16.5714 13.7885 16.5714ZM2.63824 26.9285C2.88886 24.6506 3.95662 22.5464 5.63749 21.018C7.31836 19.4895 9.4945 18.6439 11.7501 18.6428H13.7885C16.0442 18.6439 18.2203 19.4895 19.9012 21.018C21.582 22.5464 22.6498 24.6506 22.9004 26.9285H2.63824Z" fill="black"/>
</svg>
