<svg width="56" height="15" viewBox="0 0 56 15" fill="none" xmlns="http://www.w3.org/2000/svg">
<path d="M0 14.7443V0.198864H3.07528V12.2088H9.31108V14.7443H0Z" fill="white"/>
<path d="M24.1477 7.47159C24.1477 9.05777 23.8471 10.4072 23.2457 11.5199C22.6491 12.6326 21.8348 13.4825 20.8026 14.0696C19.7751 14.652 18.6198 14.9432 17.3366 14.9432C16.044 14.9432 14.884 14.6496 13.8565 14.0625C12.8291 13.4754 12.017 12.6255 11.4205 11.5128C10.8239 10.4001 10.5256 9.05303 10.5256 7.47159C10.5256 5.88542 10.8239 4.53599 11.4205 3.4233C12.017 2.31061 12.8291 1.46307 13.8565 0.880682C14.884 0.293561 16.044 0 17.3366 0C18.6198 0 19.7751 0.293561 20.8026 0.880682C21.8348 1.46307 22.6491 2.31061 23.2457 3.4233C23.8471 4.53599 24.1477 5.88542 24.1477 7.47159ZM21.0298 7.47159C21.0298 6.44413 20.8759 5.57765 20.5682 4.87216C20.2652 4.16667 19.8366 3.63163 19.2827 3.26705C18.7287 2.90246 18.08 2.72017 17.3366 2.72017C16.5933 2.72017 15.9446 2.90246 15.3906 3.26705C14.8366 3.63163 14.4058 4.16667 14.098 4.87216C13.795 5.57765 13.6435 6.44413 13.6435 7.47159C13.6435 8.49905 13.795 9.36553 14.098 10.071C14.4058 10.7765 14.8366 11.3116 15.3906 11.6761C15.9446 12.0407 16.5933 12.223 17.3366 12.223C18.08 12.223 18.7287 12.0407 19.2827 11.6761C19.8366 11.3116 20.2652 10.7765 20.5682 10.071C20.8759 9.36553 21.0298 8.49905 21.0298 7.47159Z" fill="white"/>
<path d="M36.0707 4.90057C35.9712 4.55492 35.8316 4.24953 35.6516 3.98438C35.4717 3.71449 35.2515 3.48722 34.9911 3.30256C34.7354 3.11316 34.4419 2.96875 34.1104 2.86932C33.7837 2.76989 33.4215 2.72017 33.0238 2.72017C32.2804 2.72017 31.627 2.90483 31.0636 3.27415C30.5049 3.64347 30.0692 4.18087 29.7567 4.88636C29.4442 5.58712 29.288 6.44413 29.288 7.45739C29.288 8.47064 29.4419 9.33239 29.7496 10.0426C30.0574 10.7528 30.493 11.295 31.0565 11.669C31.6199 12.0384 32.2852 12.223 33.0522 12.223C33.7482 12.223 34.3424 12.0999 34.8349 11.8537C35.332 11.6027 35.7108 11.25 35.9712 10.7955C36.2364 10.3409 36.369 9.8035 36.369 9.18324L36.994 9.27557H33.244V6.96023H39.3306V8.79261C39.3306 10.071 39.0607 11.1695 38.521 12.0881C37.9812 13.0019 37.2378 13.7074 36.2908 14.2045C35.3439 14.697 34.2596 14.9432 33.038 14.9432C31.6744 14.9432 30.4764 14.6425 29.4442 14.0412C28.412 13.4351 27.6071 12.5758 27.0295 11.4631C26.4566 10.3456 26.1701 9.01989 26.1701 7.4858C26.1701 6.30682 26.3406 5.25568 26.6815 4.33239C27.0271 3.40436 27.5101 2.61837 28.1303 1.97443C28.7506 1.33049 29.4727 0.840435 30.2965 0.504261C31.1204 0.168087 32.0129 0 32.9741 0C33.7979 0 34.565 0.120739 35.2752 0.362216C35.9854 0.598959 36.6152 0.935133 37.1644 1.37074C37.7184 1.80634 38.1706 2.32481 38.521 2.92614C38.8713 3.52273 39.0962 4.18087 39.1957 4.90057H36.0707Z" fill="white"/>
<path d="M55.0071 7.47159C55.0071 9.05777 54.7064 10.4072 54.1051 11.5199C53.5085 12.6326 52.6941 13.4825 51.6619 14.0696C50.6345 14.652 49.4792 14.9432 48.196 14.9432C46.9034 14.9432 45.7434 14.6496 44.7159 14.0625C43.6884 13.4754 42.8764 12.6255 42.2798 11.5128C41.6832 10.4001 41.3849 9.05303 41.3849 7.47159C41.3849 5.88542 41.6832 4.53599 42.2798 3.4233C42.8764 2.31061 43.6884 1.46307 44.7159 0.880682C45.7434 0.293561 46.9034 0 48.196 0C49.4792 0 50.6345 0.293561 51.6619 0.880682C52.6941 1.46307 53.5085 2.31061 54.1051 3.4233C54.7064 4.53599 55.0071 5.88542 55.0071 7.47159ZM51.8892 7.47159C51.8892 6.44413 51.7353 5.57765 51.4276 4.87216C51.1245 4.16667 50.696 3.63163 50.142 3.26705C49.5881 2.90246 48.9394 2.72017 48.196 2.72017C47.4527 2.72017 46.804 2.90246 46.25 3.26705C45.696 3.63163 45.2652 4.16667 44.9574 4.87216C44.6544 5.57765 44.5028 6.44413 44.5028 7.47159C44.5028 8.49905 44.6544 9.36553 44.9574 10.071C45.2652 10.7765 45.696 11.3116 46.25 11.6761C46.804 12.0407 47.4527 12.223 48.196 12.223C48.9394 12.223 49.5881 12.0407 50.142 11.6761C50.696 11.3116 51.1245 10.7765 51.4276 10.071C51.7353 9.36553 51.8892 8.49905 51.8892 7.47159Z" fill="white"/>
</svg>
